<?xml version="1.0" encoding="UTF-8"?>
<svg xmlns="http://www.w3.org/2000/svg" xmlns:xlink="http://www.w3.org/1999/xlink" width="800pt" height="421pt" viewBox="0 0 800 421" version="1.1">
<g id="surface310500">
<rect x="0" y="0" width="800" height="421" style="fill:rgb(100%,100%,100%);fill-opacity:1;stroke:none;"/>
<path style="fill-rule:evenodd;fill:rgb(100%,100%,100%);fill-opacity:1;stroke-width:0.1;stroke-linecap:butt;stroke-linejoin:miter;stroke:rgb(0%,0%,0%);stroke-opacity:1;stroke-miterlimit:10;" d="M 12.906641 -115.023242 C 12.906641 -113.931641 11.808398 -113.04668 10.45332 -113.04668 C 9.098437 -113.04668 8 -113.931641 8 -115.023242 C 8 -116.115039 9.098437 -117 10.45332 -117 C 11.808398 -117 12.906641 -116.115039 12.906641 -115.023242 " transform="matrix(20,0,0,20,-159,2421)"/>
<path style="fill-rule:evenodd;fill:rgb(100%,100%,100%);fill-opacity:1;stroke-width:0.1;stroke-linecap:butt;stroke-linejoin:miter;stroke:rgb(0%,0%,0%);stroke-opacity:1;stroke-miterlimit:10;" d="M 12.906641 -106.023242 C 12.906641 -104.931641 11.808398 -104.04668 10.45332 -104.04668 C 9.098437 -104.04668 8 -104.931641 8 -106.023242 C 8 -107.115039 9.098437 -108 10.45332 -108 C 11.808398 -108 12.906641 -107.115039 12.906641 -106.023242 " transform="matrix(20,0,0,20,-159,2421)"/>
<path style="fill-rule:evenodd;fill:rgb(100%,100%,100%);fill-opacity:1;stroke-width:0.1;stroke-linecap:butt;stroke-linejoin:miter;stroke:rgb(0%,0%,0%);stroke-opacity:1;stroke-miterlimit:10;" d="M 30.906641 -119.023242 C 30.906641 -117.931641 29.808398 -117.04668 28.45332 -117.04668 C 27.098437 -117.04668 26 -117.931641 26 -119.023242 C 26 -120.115039 27.098437 -121 28.45332 -121 C 29.808398 -121 30.906641 -120.115039 30.906641 -119.023242 " transform="matrix(20,0,0,20,-159,2421)"/>
<path style="fill-rule:evenodd;fill:rgb(100%,100%,100%);fill-opacity:1;stroke-width:0.1;stroke-linecap:butt;stroke-linejoin:miter;stroke:rgb(0%,0%,0%);stroke-opacity:1;stroke-miterlimit:10;" d="M 30.906641 -110.023242 C 30.906641 -108.931641 29.808398 -108.04668 28.45332 -108.04668 C 27.098437 -108.04668 26 -108.931641 26 -110.023242 C 26 -111.115039 27.098437 -112 28.45332 -112 C 29.808398 -112 30.906641 -111.115039 30.906641 -110.023242 " transform="matrix(20,0,0,20,-159,2421)"/>
<path style="fill-rule:evenodd;fill:rgb(100%,100%,100%);fill-opacity:1;stroke-width:0.1;stroke-linecap:butt;stroke-linejoin:miter;stroke:rgb(0%,0%,0%);stroke-opacity:1;stroke-miterlimit:10;" d="M 30.906641 -102.023242 C 30.906641 -100.931641 29.808398 -100.04668 28.45332 -100.04668 C 27.098437 -100.04668 26 -100.931641 26 -102.023242 C 26 -103.115039 27.098437 -104 28.45332 -104 C 29.808398 -104 30.906641 -103.115039 30.906641 -102.023242 " transform="matrix(20,0,0,20,-159,2421)"/>
<path style="fill-rule:evenodd;fill:rgb(100%,100%,100%);fill-opacity:1;stroke-width:0.1;stroke-linecap:butt;stroke-linejoin:miter;stroke:rgb(0%,0%,0%);stroke-opacity:1;stroke-miterlimit:10;" d="M 47.906641 -110.023242 C 47.906641 -108.931641 46.808398 -108.04668 45.45332 -108.04668 C 44.098438 -108.04668 43 -108.931641 43 -110.023242 C 43 -111.115039 44.098438 -112 45.45332 -112 C 46.808398 -112 47.906641 -111.115039 47.906641 -110.023242 " transform="matrix(20,0,0,20,-159,2421)"/>
<path style="fill:none;stroke-width:0.1;stroke-linecap:butt;stroke-linejoin:miter;stroke:rgb(0%,0%,0%);stroke-opacity:1;stroke-miterlimit:10;" d="M 12.906641 -115.023242 L 25.749609 -118.946875 " transform="matrix(20,0,0,20,-159,2421)"/>
<path style="fill-rule:evenodd;fill:rgb(0%,0%,0%);fill-opacity:1;stroke-width:0.1;stroke-linecap:butt;stroke-linejoin:miter;stroke:rgb(0%,0%,0%);stroke-opacity:1;stroke-miterlimit:10;" d="M 25.893164 -118.990625 L 25.731055 -118.836523 L 25.749609 -118.946875 L 25.672656 -119.02793 Z M 25.893164 -118.990625 " transform="matrix(20,0,0,20,-159,2421)"/>
<path style="fill:none;stroke-width:0.1;stroke-linecap:butt;stroke-linejoin:miter;stroke:rgb(0%,0%,0%);stroke-opacity:1;stroke-miterlimit:10;" d="M 12.906641 -115.023242 L 25.755469 -110.116797 " transform="matrix(20,0,0,20,-159,2421)"/>
<path style="fill-rule:evenodd;fill:rgb(0%,0%,0%);fill-opacity:1;stroke-width:0.1;stroke-linecap:butt;stroke-linejoin:miter;stroke:rgb(0%,0%,0%);stroke-opacity:1;stroke-miterlimit:10;" d="M 25.895508 -110.063281 L 25.673047 -110.041211 L 25.755469 -110.116797 L 25.744336 -110.22793 Z M 25.895508 -110.063281 " transform="matrix(20,0,0,20,-159,2421)"/>
<path style="fill:none;stroke-width:0.1;stroke-linecap:butt;stroke-linejoin:miter;stroke:rgb(0%,0%,0%);stroke-opacity:1;stroke-miterlimit:10;" d="M 12.906641 -115.023242 L 25.814258 -102.207812 " transform="matrix(20,0,0,20,-159,2421)"/>
<path style="fill-rule:evenodd;fill:rgb(0%,0%,0%);fill-opacity:1;stroke-width:0.1;stroke-linecap:butt;stroke-linejoin:miter;stroke:rgb(0%,0%,0%);stroke-opacity:1;stroke-miterlimit:10;" d="M 25.920703 -102.102148 L 25.708203 -102.17207 L 25.814258 -102.207812 L 25.849219 -102.314062 Z M 25.920703 -102.102148 " transform="matrix(20,0,0,20,-159,2421)"/>
<path style="fill:none;stroke-width:0.1;stroke-linecap:butt;stroke-linejoin:miter;stroke:rgb(0%,0%,0%);stroke-opacity:1;stroke-miterlimit:10;" d="M 12.906641 -106.023242 L 25.814258 -118.838867 " transform="matrix(20,0,0,20,-159,2421)"/>
<path style="fill-rule:evenodd;fill:rgb(0%,0%,0%);fill-opacity:1;stroke-width:0.1;stroke-linecap:butt;stroke-linejoin:miter;stroke:rgb(0%,0%,0%);stroke-opacity:1;stroke-miterlimit:10;" d="M 25.920703 -118.944531 L 25.849219 -118.732617 L 25.814258 -118.838867 L 25.708203 -118.874609 Z M 25.920703 -118.944531 " transform="matrix(20,0,0,20,-159,2421)"/>
<path style="fill:none;stroke-width:0.1;stroke-linecap:butt;stroke-linejoin:miter;stroke:rgb(0%,0%,0%);stroke-opacity:1;stroke-miterlimit:10;" d="M 12.906641 -106.023242 L 25.749609 -109.946875 " transform="matrix(20,0,0,20,-159,2421)"/>
<path style="fill-rule:evenodd;fill:rgb(0%,0%,0%);fill-opacity:1;stroke-width:0.1;stroke-linecap:butt;stroke-linejoin:miter;stroke:rgb(0%,0%,0%);stroke-opacity:1;stroke-miterlimit:10;" d="M 25.893164 -109.990625 L 25.731055 -109.836523 L 25.749609 -109.946875 L 25.672656 -110.02793 Z M 25.893164 -109.990625 " transform="matrix(20,0,0,20,-159,2421)"/>
<path style="fill:none;stroke-width:0.1;stroke-linecap:butt;stroke-linejoin:miter;stroke:rgb(0%,0%,0%);stroke-opacity:1;stroke-miterlimit:10;" d="M 12.906641 -106.023242 L 25.749609 -102.099805 " transform="matrix(20,0,0,20,-159,2421)"/>
<path style="fill-rule:evenodd;fill:rgb(0%,0%,0%);fill-opacity:1;stroke-width:0.1;stroke-linecap:butt;stroke-linejoin:miter;stroke:rgb(0%,0%,0%);stroke-opacity:1;stroke-miterlimit:10;" d="M 25.893164 -102.056055 L 25.672656 -102.01875 L 25.749609 -102.099805 L 25.731055 -102.209961 Z M 25.893164 -102.056055 " transform="matrix(20,0,0,20,-159,2421)"/>
<path style="fill:none;stroke-width:0.1;stroke-linecap:butt;stroke-linejoin:miter;stroke:rgb(0%,0%,0%);stroke-opacity:1;stroke-miterlimit:10;" d="M 30.906641 -119.023242 L 42.790039 -110.179688 " transform="matrix(20,0,0,20,-159,2421)"/>
<path style="fill-rule:evenodd;fill:rgb(0%,0%,0%);fill-opacity:1;stroke-width:0.1;stroke-linecap:butt;stroke-linejoin:miter;stroke:rgb(0%,0%,0%);stroke-opacity:1;stroke-miterlimit:10;" d="M 42.910352 -110.090039 L 42.690234 -110.129297 L 42.790039 -110.179688 L 42.80957 -110.289648 Z M 42.910352 -110.090039 " transform="matrix(20,0,0,20,-159,2421)"/>
<path style="fill:none;stroke-width:0.1;stroke-linecap:butt;stroke-linejoin:miter;stroke:rgb(0%,0%,0%);stroke-opacity:1;stroke-miterlimit:10;" d="M 30.906641 -110.023242 L 42.738281 -110.023242 " transform="matrix(20,0,0,20,-159,2421)"/>
<path style="fill-rule:evenodd;fill:rgb(0%,0%,0%);fill-opacity:1;stroke-width:0.1;stroke-linecap:butt;stroke-linejoin:miter;stroke:rgb(0%,0%,0%);stroke-opacity:1;stroke-miterlimit:10;" d="M 42.888281 -110.023242 L 42.688281 -109.923242 L 42.738281 -110.023242 L 42.688281 -110.123242 Z M 42.888281 -110.023242 " transform="matrix(20,0,0,20,-159,2421)"/>
<path style="fill:none;stroke-width:0.1;stroke-linecap:butt;stroke-linejoin:miter;stroke:rgb(0%,0%,0%);stroke-opacity:1;stroke-miterlimit:10;" d="M 30.906641 -102.023242 L 42.781641 -109.878906 " transform="matrix(20,0,0,20,-159,2421)"/>
<path style="fill-rule:evenodd;fill:rgb(0%,0%,0%);fill-opacity:1;stroke-width:0.1;stroke-linecap:butt;stroke-linejoin:miter;stroke:rgb(0%,0%,0%);stroke-opacity:1;stroke-miterlimit:10;" d="M 42.906836 -109.961719 L 42.795117 -109.767969 L 42.781641 -109.878906 L 42.684766 -109.934766 Z M 42.906836 -109.961719 " transform="matrix(20,0,0,20,-159,2421)"/>
<path style="fill:none;stroke-width:0.1;stroke-linecap:butt;stroke-linejoin:miter;stroke:rgb(0%,0%,0%);stroke-opacity:1;stroke-miterlimit:10;" d="M 27 -118 C 30 -118 27 -120 30 -120 " transform="matrix(20,0,0,20,-159,2421)"/>
<path style="fill:none;stroke-width:0.1;stroke-linecap:butt;stroke-linejoin:miter;stroke:rgb(0%,0%,0%);stroke-opacity:1;stroke-miterlimit:10;" d="M 27 -109 C 30 -109 27 -111 30 -111 " transform="matrix(20,0,0,20,-159,2421)"/>
<path style="fill:none;stroke-width:0.1;stroke-linecap:butt;stroke-linejoin:miter;stroke:rgb(0%,0%,0%);stroke-opacity:1;stroke-miterlimit:10;" d="M 27 -101 C 30 -101 27 -103 30 -103 " transform="matrix(20,0,0,20,-159,2421)"/>
<path style="fill:none;stroke-width:0.1;stroke-linecap:butt;stroke-linejoin:miter;stroke:rgb(0%,0%,0%);stroke-opacity:1;stroke-miterlimit:10;" d="M 44 -109 C 47 -109 44 -111 47 -111 " transform="matrix(20,0,0,20,-159,2421)"/>
</g>
</svg>
